<svg aria-hidden="true" style="position: absolute; width: 0; height: 0; overflow: hidden;" version="1.1" xmlns="http://www.w3.org/2000/svg" xmlns:xlink="http://www.w3.org/1999/xlink">
<defs>
<symbol id="icon-close1" viewBox="0 0 33 32">
<path fill="#d9d9d9" style="fill: var(--color1, #d9d9d9)" d="M1.349 1.841c0.745-0.816 2.010-0.873 2.825-0.129l27.775 25.359c0.816 0.745 0.873 2.010 0.128 2.825s-2.010 0.873-2.825 0.128l-27.775-25.359c-0.816-0.745-0.873-2.010-0.129-2.825z"></path>
<path fill="#d9d9d9" style="fill: var(--color1, #d9d9d9)" d="M31.962 1.717c0.762 0.8 0.731 2.066-0.068 2.828l-27.227 25.946c-0.8 0.762-2.066 0.732-2.828-0.068s-0.732-2.066 0.068-2.828l27.227-25.946c0.8-0.762 2.066-0.732 2.828 0.068z"></path>
</symbol>
<symbol id="icon-close" viewBox="0 0 32 32">
<path stroke-linejoin="miter" stroke-linecap="butt" stroke-miterlimit="4" stroke-width="1.3333" d="M24 8l-16 16"></path>
<path stroke-linejoin="miter" stroke-linecap="butt" stroke-miterlimit="4" stroke-width="1.3333" d="M8 8l16 16"></path>
</symbol>

</defs>
</svg>
